<svg xmlns:mydata="http://www.w3.org/2000/svg" mydata:contrastcolor="ffffff" mydata:template="Contrast" mydata:presentation="2.5" mydata:layoutType="undefined" mydata:specialFontId="undefined" mydata:id1="974" mydata:id2="027" mydata:companyName="revelo" mydata:companyTagline="text based presentations" version="1.1" xmlns="http://www.w3.org/2000/svg" xmlns:xlink="http://www.w3.org/1999/xlink" width="550" height="940"><g fill="none" fill-rule="none" stroke="none" stroke-width="1" stroke-linecap="butt" stroke-linejoin="miter" stroke-miterlimit="10" stroke-dasharray="" stroke-dashoffset="0" font-family="none" font-weight="none" font-size="none" text-anchor="none" style="mix-blend-mode: normal"><g data-paper-data="{&quot;isGlobalGroup&quot;:true,&quot;bounds&quot;:{&quot;x&quot;:162.54452873389874,&quot;y&quot;:115.00000000000001,&quot;width&quot;:224.9109425322025,&quot;height&quot;:240}}"><g data-paper-data="{&quot;textHeightFactor&quot;:0.46867921339901564,&quot;isSecondaryText&quot;:true}" fill="#ffb500" fill-rule="nonzero"><path d="M163.33728,348.22002c-0.10718,0 -0.20881,-0.0194 -0.30491,-0.05821c-0.09609,-0.03881 -0.18017,-0.09147 -0.25224,-0.158c-0.07207,-0.06652 -0.12935,-0.14414 -0.17186,-0.23284c-0.0425,-0.0887 -0.06375,-0.18294 -0.06375,-0.28273c0,-0.09979 0.02125,-0.19495 0.06375,-0.2855c0.0425,-0.09055 0.09979,-0.16908 0.17186,-0.23561c0.07207,-0.06652 0.15615,-0.11919 0.25224,-0.158c0.09609,-0.03881 0.19773,-0.05821 0.30491,-0.05821h5.06142c0.10718,0 0.20881,0.0194 0.30491,0.05821c0.09609,0.03881 0.18017,0.09147 0.25224,0.158c0.07207,0.06652 0.12935,0.14506 0.17186,0.23561c0.0425,0.09055 0.06375,0.18571 0.06375,0.2855c0,0.09979 -0.02125,0.19403 -0.06375,0.28273c-0.0425,0.0887 -0.09979,0.16631 -0.17186,0.23284c-0.07207,0.06652 -0.15615,0.11919 -0.25224,0.158c-0.09609,0.03881 -0.19773,0.05821 -0.30491,0.05821h-1.48572v5.50492c0,0.15153 -0.02679,0.29289 -0.08038,0.4241c-0.05359,0.1312 -0.12751,0.24577 -0.22175,0.34371c-0.09424,0.09794 -0.20327,0.17463 -0.32708,0.23006c-0.12381,0.05544 -0.25778,0.08316 -0.40192,0.08316c-0.14414,0 -0.27811,-0.02772 -0.40192,-0.08316c-0.12381,-0.05544 -0.23191,-0.13213 -0.32431,-0.23006c-0.0924,-0.09794 -0.16539,-0.21251 -0.21898,-0.34371c-0.05359,-0.1312 -0.08038,-0.27257 -0.08038,-0.4241v-5.50492z" data-paper-data="{&quot;glyphName&quot;:&quot;T&quot;,&quot;glyphIndex&quot;:0,&quot;firstGlyphOfWord&quot;:true,&quot;word&quot;:1}"></path><path d="M173.52481,354.80597c-0.18849,0 -0.34648,-0.03881 -0.47399,-0.11642c-0.12751,-0.07761 -0.23006,-0.17832 -0.30768,-0.30213c-0.07761,-0.12381 -0.13305,-0.26333 -0.16631,-0.41855c-0.03326,-0.15522 -0.04989,-0.31045 -0.04989,-0.46567v-5.28317c0,-0.21066 0.01294,-0.40562 0.03881,-0.58486c0.02587,-0.17925 0.08316,-0.33355 0.17186,-0.4629c0.0887,-0.12935 0.21805,-0.23099 0.38806,-0.30491c0.17001,-0.07392 0.39915,-0.11087 0.68742,-0.11087h3.55907c0.10718,0 0.20789,0.0194 0.30213,0.05821c0.09424,0.03881 0.17648,0.09055 0.2467,0.15522c0.07022,0.06468 0.12566,0.14137 0.16631,0.23006c0.04065,0.0887 0.06098,0.18294 0.06098,0.28273c0,0.09979 -0.02033,0.19311 -0.06098,0.27996c-0.04065,0.08685 -0.09609,0.16262 -0.16631,0.22729c-0.07022,0.06468 -0.15245,0.11549 -0.2467,0.15245c-0.09424,0.03696 -0.19495,0.05544 -0.30213,0.05544h-2.85502v1.79617h2.60555c0.10718,0 0.20789,0.01848 0.30213,0.05544c0.09424,0.03696 0.17648,0.0887 0.2467,0.15522c0.07022,0.06652 0.12566,0.14321 0.16631,0.23006c0.04065,0.08685 0.06098,0.18017 0.06098,0.27996c0,0.09979 -0.02033,0.19311 -0.06098,0.27996c-0.04065,0.08685 -0.09609,0.16262 -0.16631,0.22729c-0.07022,0.06468 -0.15245,0.11549 -0.2467,0.15245c-0.09424,0.03696 -0.19495,0.05544 -0.30213,0.05544h-2.60555v1.94031h2.99361c0.09979,0 0.19311,0.01848 0.27996,0.05544c0.08685,0.03696 0.16354,0.0887 0.23006,0.15522c0.06652,0.06652 0.11827,0.14321 0.15522,0.23006c0.03696,0.08685 0.05544,0.18017 0.05544,0.27996c0,0.09979 -0.01848,0.19311 -0.05544,0.27996c-0.03696,0.08685 -0.0887,0.16262 -0.15522,0.22729c-0.06652,0.06468 -0.14321,0.11549 -0.23006,0.15245c-0.08685,0.03696 -0.18017,0.05544 -0.27996,0.05544z" data-paper-data="{&quot;glyphName&quot;:&quot;E&quot;,&quot;glyphIndex&quot;:1,&quot;word&quot;:1}"></path><path d="M183.13579,354.31258c-0.11827,0.1737 -0.25132,0.29936 -0.39915,0.37697c-0.14783,0.07761 -0.29382,0.11642 -0.43795,0.11642c-0.10718,0 -0.20789,-0.0194 -0.30213,-0.05821c-0.09424,-0.03881 -0.17648,-0.09332 -0.2467,-0.16354c-0.07022,-0.07022 -0.12658,-0.1543 -0.16908,-0.25224c-0.0425,-0.09794 -0.06375,-0.20604 -0.06375,-0.32431c0,-0.11827 0.0231,-0.24392 0.0693,-0.37697c0.0462,-0.13305 0.12289,-0.27164 0.23006,-0.41578l1.87932,-2.53903l-1.77399,-2.3838c-0.08131,-0.10718 -0.13952,-0.21436 -0.17463,-0.32154c-0.03511,-0.10718 -0.05267,-0.21066 -0.05267,-0.31045c0,-0.12935 0.02495,-0.24947 0.07484,-0.36034c0.04989,-0.11087 0.11642,-0.20604 0.19957,-0.2855c0.08316,-0.07946 0.18017,-0.14229 0.29105,-0.18849c0.11087,-0.0462 0.22544,-0.0693 0.34371,-0.0693c0.14414,0 0.28827,0.04065 0.43241,0.12196c0.14414,0.08131 0.27534,0.21066 0.3936,0.38806l1.56888,2.32837l1.56333,-2.27293c0.14044,-0.20327 0.2892,-0.34833 0.44627,-0.43518c0.15707,-0.08685 0.30952,-0.13028 0.45736,-0.13028c0.11087,0 0.21621,0.02125 0.31599,0.06375c0.09979,0.0425 0.18664,0.09979 0.26056,0.17186c0.07392,0.07207 0.13213,0.15615 0.17463,0.25224c0.0425,0.09609 0.06375,0.19773 0.06375,0.30491c0,0.18479 -0.06468,0.36589 -0.19403,0.54329l-1.92367,2.58338l1.94031,2.67208c0.06283,0.085 0.1081,0.1737 0.13582,0.2661c0.02772,0.0924 0.04158,0.1811 0.04158,0.2661c0,0.12196 -0.02495,0.2393 -0.07484,0.35203c-0.04989,0.11272 -0.11642,0.21159 -0.19957,0.29659c-0.08316,0.085 -0.17925,0.15338 -0.28827,0.20512c-0.10903,0.05174 -0.22452,0.07761 -0.34648,0.07761c-0.14414,0 -0.29012,-0.04158 -0.43795,-0.12473c-0.14783,-0.08316 -0.28643,-0.22267 -0.41578,-0.41855l-1.65203,-2.45033z" data-paper-data="{&quot;glyphName&quot;:&quot;X&quot;,&quot;glyphIndex&quot;:2,&quot;word&quot;:1}"></path><path d="M191.9651,348.22002c-0.10718,0 -0.20881,-0.0194 -0.30491,-0.05821c-0.09609,-0.03881 -0.18017,-0.09147 -0.25224,-0.158c-0.07207,-0.06652 -0.12935,-0.14414 -0.17186,-0.23284c-0.0425,-0.0887 -0.06375,-0.18294 -0.06375,-0.28273c0,-0.09979 0.02125,-0.19495 0.06375,-0.2855c0.0425,-0.09055 0.09979,-0.16908 0.17186,-0.23561c0.07207,-0.06652 0.15615,-0.11919 0.25224,-0.158c0.09609,-0.03881 0.19773,-0.05821 0.30491,-0.05821h5.06142c0.10718,0 0.20881,0.0194 0.30491,0.05821c0.09609,0.03881 0.18017,0.09147 0.25224,0.158c0.07207,0.06652 0.12935,0.14506 0.17186,0.23561c0.0425,0.09055 0.06375,0.18571 0.06375,0.2855c0,0.09979 -0.02125,0.19403 -0.06375,0.28273c-0.0425,0.0887 -0.09979,0.16631 -0.17186,0.23284c-0.07207,0.06652 -0.15615,0.11919 -0.25224,0.158c-0.09609,0.03881 -0.19773,0.05821 -0.30491,0.05821h-1.48572v5.50492c0,0.15153 -0.02679,0.29289 -0.08038,0.4241c-0.05359,0.1312 -0.12751,0.24577 -0.22175,0.34371c-0.09424,0.09794 -0.20327,0.17463 -0.32708,0.23006c-0.12381,0.05544 -0.25778,0.08316 -0.40192,0.08316c-0.14414,0 -0.27811,-0.02772 -0.40192,-0.08316c-0.12381,-0.05544 -0.23191,-0.13213 -0.32431,-0.23006c-0.0924,-0.09794 -0.16539,-0.21251 -0.21898,-0.34371c-0.05359,-0.1312 -0.08038,-0.27257 -0.08038,-0.4241v-5.50492z" data-paper-data="{&quot;glyphName&quot;:&quot;T&quot;,&quot;glyphIndex&quot;:3,&quot;lastGlyphOfWord&quot;:true,&quot;word&quot;:1}"></path><path d="M207.10687,347.73217c0,-0.1737 0.03511,-0.32246 0.10533,-0.44627c0.07022,-0.12381 0.16354,-0.22452 0.27996,-0.30213c0.11642,-0.07761 0.25224,-0.1349 0.40746,-0.17186c0.15522,-0.03696 0.31969,-0.05544 0.49339,-0.05544h1.71856c0.25132,0 0.51002,0.00462 0.77612,0.01386c0.2661,0.00924 0.52665,0.03511 0.78167,0.07761c0.25501,0.0425 0.49524,0.10533 0.72068,0.18849c0.22544,0.08316 0.42317,0.19957 0.59318,0.34925c0.17001,0.14968 0.30491,0.33817 0.40469,0.56546c0.09979,0.22729 0.14968,0.50356 0.14968,0.82879c0,0.21805 -0.03696,0.42779 -0.11087,0.62921c-0.07392,0.20142 -0.17925,0.38344 -0.31599,0.54606c-0.13675,0.16262 -0.29936,0.30029 -0.48785,0.41301c-0.18849,0.11272 -0.3973,0.18941 -0.62644,0.23006v0.02217c0.27719,0.04065 0.52758,0.11734 0.75118,0.23006c0.2236,0.11272 0.41301,0.25409 0.56823,0.4241c0.15522,0.17001 0.27534,0.36589 0.36034,0.58764c0.085,0.22175 0.12751,0.46013 0.12751,0.71514c0,0.28088 -0.05544,0.5553 -0.16631,0.82324c-0.11087,0.26795 -0.28088,0.5054 -0.51002,0.71237c-0.22914,0.20697 -0.52019,0.3742 -0.87314,0.50171c-0.35295,0.12751 -0.7715,0.19126 -1.25565,0.19126h-2.60555c-0.21066,0 -0.39545,-0.01663 -0.55437,-0.04989c-0.15892,-0.03326 -0.29289,-0.10071 -0.40192,-0.20235c-0.10903,-0.10164 -0.19126,-0.24577 -0.2467,-0.43241c-0.05544,-0.18664 -0.08316,-0.43333 -0.08316,-0.74009zM209.06381,353.56417h0.92026c0.29567,0 0.55622,-0.01478 0.78167,-0.04435c0.22544,-0.02957 0.41393,-0.0887 0.56546,-0.1774c0.15153,-0.0887 0.2661,-0.21159 0.34371,-0.36866c0.07761,-0.15707 0.11642,-0.36127 0.11642,-0.61258c0,-0.23284 -0.04435,-0.42317 -0.13305,-0.571c-0.0887,-0.14783 -0.21436,-0.26518 -0.37697,-0.35203c-0.16262,-0.08685 -0.35849,-0.14691 -0.58764,-0.18017c-0.22914,-0.03326 -0.48415,-0.04989 -0.76503,-0.04989h-0.86482zM209.06381,347.99827v2.20086h0.79275c0.24392,0 0.47029,-0.01663 0.67911,-0.04989c0.20881,-0.03326 0.38806,-0.0924 0.53774,-0.1774c0.14968,-0.085 0.26702,-0.2005 0.35203,-0.34648c0.085,-0.14598 0.12751,-0.3317 0.12751,-0.55714c0,-0.22544 -0.04158,-0.40746 -0.12473,-0.54606c-0.08316,-0.13859 -0.1968,-0.2467 -0.34094,-0.32431c-0.14414,-0.07761 -0.3123,-0.13028 -0.50448,-0.158c-0.19218,-0.02772 -0.39545,-0.04158 -0.60981,-0.04158z" data-paper-data="{&quot;glyphName&quot;:&quot;B&quot;,&quot;glyphIndex&quot;:4,&quot;firstGlyphOfWord&quot;:true,&quot;word&quot;:2}"></path><path d="M220.6539,348.26991l-1.21962,3.56462h2.46142l-1.21408,-3.56462zM224.26841,353.12622c0.02587,0.06652 0.05359,0.13582 0.08316,0.20789c0.02957,0.07207 0.05729,0.14506 0.08316,0.21898c0.02587,0.07392 0.04712,0.14506 0.06375,0.21343c0.01663,0.06837 0.02495,0.13028 0.02495,0.18571c0,0.13675 -0.02495,0.25778 -0.07484,0.36311c-0.04989,0.10533 -0.11734,0.19403 -0.20235,0.2661c-0.085,0.07207 -0.18387,0.12751 -0.29659,0.16631c-0.11272,0.03881 -0.23191,0.05821 -0.35757,0.05821c-0.14414,0 -0.26795,-0.02033 -0.37143,-0.06098c-0.10348,-0.04065 -0.19588,-0.10533 -0.27719,-0.19403c-0.08131,-0.0887 -0.15615,-0.20419 -0.22452,-0.34648c-0.06837,-0.14229 -0.14137,-0.31692 -0.21898,-0.52388l-0.2661,-0.70405h-3.13775l-0.22729,0.70405c-0.06652,0.21066 -0.13397,0.38806 -0.20235,0.5322c-0.06837,0.14414 -0.14414,0.25963 -0.22729,0.34648c-0.08316,0.08685 -0.17832,0.14968 -0.2855,0.18849c-0.10718,0.03881 -0.23284,0.05821 -0.37697,0.05821c-0.12566,0 -0.24485,-0.0194 -0.35757,-0.05821c-0.11272,-0.03881 -0.21159,-0.09424 -0.29659,-0.16631c-0.085,-0.07207 -0.15245,-0.16077 -0.20235,-0.2661c-0.04989,-0.10533 -0.07484,-0.22637 -0.07484,-0.36311c0,-0.05544 0.00832,-0.11734 0.02495,-0.18571c0.01663,-0.06837 0.03788,-0.13952 0.06375,-0.21343c0.02587,-0.07392 0.05359,-0.14691 0.08316,-0.21898c0.02957,-0.07207 0.05729,-0.14137 0.08316,-0.20789l1.49126,-4.03029c0.14044,-0.37697 0.27441,-0.71052 0.40192,-1.00064c0.12751,-0.29012 0.26795,-0.53497 0.42132,-0.73454c0.15338,-0.19957 0.32985,-0.35018 0.52943,-0.45181c0.19957,-0.10164 0.44165,-0.15245 0.72623,-0.15245c0.2661,0 0.49339,0.03973 0.68188,0.11919c0.18849,0.07946 0.35849,0.21066 0.51002,0.3936c0.15153,0.18294 0.29567,0.4241 0.43241,0.72346c0.13675,0.29936 0.28827,0.6671 0.45459,1.1032z" data-paper-data="{&quot;glyphName&quot;:&quot;A&quot;,&quot;glyphIndex&quot;:5,&quot;word&quot;:2}"></path><path d="M229.61072,348.85755c0,0.1774 0.05913,0.32708 0.1774,0.44904c0.11827,0.12196 0.27257,0.22729 0.4629,0.31599c0.19033,0.0887 0.40562,0.16631 0.64584,0.23284c0.24023,0.06652 0.4823,0.1349 0.72623,0.20512c0.39176,0.11827 0.74748,0.24392 1.06717,0.37697c0.31969,0.13305 0.59318,0.29197 0.82047,0.47676c0.22729,0.18479 0.40284,0.40377 0.52665,0.65693c0.12381,0.25316 0.18571,0.55714 0.18571,0.91194c0,0.38806 -0.07669,0.73732 -0.23006,1.04776c-0.15338,0.31045 -0.3742,0.5747 -0.66248,0.79275c-0.28827,0.21805 -0.6366,0.38529 -1.04499,0.50171c-0.40839,0.11642 -0.86759,0.17463 -1.37762,0.17463c-0.2624,0 -0.52665,-0.01571 -0.79275,-0.04712c-0.2661,-0.03141 -0.52296,-0.07669 -0.77058,-0.13582c-0.24762,-0.05913 -0.48046,-0.1312 -0.69851,-0.21621c-0.21805,-0.085 -0.40839,-0.1811 -0.571,-0.28827c-0.16262,-0.10718 -0.29012,-0.22452 -0.38252,-0.35203c-0.0924,-0.12751 -0.13859,-0.26333 -0.13859,-0.40746c0,-0.0924 0.0194,-0.18294 0.05821,-0.27164c0.03881,-0.0887 0.0887,-0.16908 0.14968,-0.24115c0.06098,-0.07207 0.12935,-0.13028 0.20512,-0.17463c0.07576,-0.04435 0.1506,-0.06652 0.22452,-0.06652c0.06652,0 0.1312,0.01109 0.19403,0.03326c0.06283,0.02217 0.12658,0.04897 0.19126,0.08038c0.06468,0.03141 0.1312,0.0656 0.19957,0.10256c0.06837,0.03696 0.14137,0.07022 0.21898,0.09979c0.25501,0.11457 0.54144,0.21805 0.85928,0.31045c0.31784,0.0924 0.65046,0.13859 0.99787,0.13859c0.18849,0 0.36681,-0.01756 0.53497,-0.05267c0.16816,-0.03511 0.31599,-0.0887 0.4435,-0.16077c0.12751,-0.07207 0.22822,-0.16539 0.30213,-0.27996c0.07392,-0.11457 0.11087,-0.25316 0.11087,-0.41578c0,-0.12196 -0.02217,-0.23099 -0.06652,-0.32708c-0.04435,-0.09609 -0.10533,-0.18017 -0.18294,-0.25224c-0.07761,-0.07207 -0.16816,-0.1349 -0.27164,-0.18849c-0.10348,-0.05359 -0.21251,-0.10071 -0.32708,-0.14137l-0.24947,-0.0887c-0.04805,-0.01478 -0.09424,-0.03049 -0.13859,-0.04712c-0.04435,-0.01663 -0.0924,-0.03234 -0.14414,-0.04712l-0.28827,-0.08316c-0.06283,-0.01478 -0.11642,-0.02864 -0.16077,-0.04158c-0.04435,-0.01294 -0.08408,-0.02587 -0.11919,-0.03881c-0.03511,-0.01294 -0.0693,-0.02587 -0.10256,-0.03881c-0.03326,-0.01294 -0.07207,-0.02679 -0.11642,-0.04158l-0.52111,-0.18294c-0.33632,-0.12196 -0.62459,-0.24947 -0.86482,-0.38252c-0.24023,-0.13305 -0.43611,-0.28273 -0.58764,-0.44904c-0.15153,-0.16631 -0.26333,-0.35572 -0.3354,-0.56823c-0.07207,-0.21251 -0.1081,-0.45921 -0.1081,-0.74009c0,-0.36958 0.07669,-0.70405 0.23006,-1.00341c0.15338,-0.29936 0.37328,-0.55437 0.6597,-0.76503c0.28643,-0.21066 0.63383,-0.37328 1.04222,-0.48785c0.40839,-0.11457 0.86759,-0.17186 1.37762,-0.17186c0.18479,0 0.38621,0.01201 0.60427,0.03603c0.21805,0.02402 0.43611,0.06006 0.65416,0.1081c0.21805,0.04805 0.42779,0.10995 0.62921,0.18571c0.20142,0.07576 0.37975,0.16446 0.53497,0.2661c0.15522,0.10164 0.27996,0.21713 0.3742,0.34648c0.09424,0.12935 0.14137,0.27349 0.14137,0.43241c0,0.0924 -0.01756,0.1774 -0.05267,0.25501c-0.03511,0.07761 -0.08223,0.14414 -0.14137,0.19957c-0.05913,0.05544 -0.12843,0.09886 -0.20789,0.13028c-0.07946,0.03141 -0.16169,0.04712 -0.2467,0.04712c-0.11087,0 -0.21251,-0.02402 -0.30491,-0.07207c-0.1737,-0.0887 -0.3354,-0.16446 -0.48508,-0.22729c-0.14968,-0.06283 -0.29844,-0.11457 -0.44627,-0.15522c-0.14783,-0.04065 -0.30029,-0.07022 -0.45736,-0.0887c-0.15707,-0.01848 -0.32985,-0.02772 -0.51834,-0.02772c-0.1774,0 -0.35203,0.01571 -0.52388,0.04712c-0.17186,0.03141 -0.32523,0.08131 -0.46013,0.14968c-0.1349,0.06837 -0.24392,0.15615 -0.32708,0.26333c-0.08316,0.10718 -0.12473,0.23838 -0.12473,0.3936z" data-paper-data="{&quot;glyphName&quot;:&quot;S&quot;,&quot;glyphIndex&quot;:6,&quot;word&quot;:2}"></path><path d="M238.87244,354.80597c-0.18849,0 -0.34648,-0.03881 -0.47399,-0.11642c-0.12751,-0.07761 -0.23006,-0.17832 -0.30768,-0.30213c-0.07761,-0.12381 -0.13305,-0.26333 -0.16631,-0.41855c-0.03326,-0.15522 -0.04989,-0.31045 -0.04989,-0.46567v-5.28317c0,-0.21066 0.01294,-0.40562 0.03881,-0.58486c0.02587,-0.17925 0.08316,-0.33355 0.17186,-0.4629c0.0887,-0.12935 0.21805,-0.23099 0.38806,-0.30491c0.17001,-0.07392 0.39915,-0.11087 0.68742,-0.11087h3.55907c0.10718,0 0.20789,0.0194 0.30213,0.05821c0.09424,0.03881 0.17648,0.09055 0.2467,0.15522c0.07022,0.06468 0.12566,0.14137 0.16631,0.23006c0.04065,0.0887 0.06098,0.18294 0.06098,0.28273c0,0.09979 -0.02033,0.19311 -0.06098,0.27996c-0.04065,0.08685 -0.09609,0.16262 -0.16631,0.22729c-0.07022,0.06468 -0.15245,0.11549 -0.2467,0.15245c-0.09424,0.03696 -0.19495,0.05544 -0.30213,0.05544h-2.85502v1.79617h2.60555c0.10718,0 0.20789,0.01848 0.30213,0.05544c0.09424,0.03696 0.17648,0.0887 0.2467,0.15522c0.07022,0.06652 0.12566,0.14321 0.16631,0.23006c0.04065,0.08685 0.06098,0.18017 0.06098,0.27996c0,0.09979 -0.02033,0.19311 -0.06098,0.27996c-0.04065,0.08685 -0.09609,0.16262 -0.16631,0.22729c-0.07022,0.06468 -0.15245,0.11549 -0.2467,0.15245c-0.09424,0.03696 -0.19495,0.05544 -0.30213,0.05544h-2.60555v1.94031h2.99361c0.09979,0 0.19311,0.01848 0.27996,0.05544c0.08685,0.03696 0.16354,0.0887 0.23006,0.15522c0.06652,0.06652 0.11827,0.14321 0.15522,0.23006c0.03696,0.08685 0.05544,0.18017 0.05544,0.27996c0,0.09979 -0.01848,0.19311 -0.05544,0.27996c-0.03696,0.08685 -0.0887,0.16262 -0.15522,0.22729c-0.06652,0.06468 -0.14321,0.11549 -0.23006,0.15245c-0.08685,0.03696 -0.18017,0.05544 -0.27996,0.05544z" data-paper-data="{&quot;glyphName&quot;:&quot;E&quot;,&quot;glyphIndex&quot;:7,&quot;word&quot;:2}"></path><path d="M248.24504,354.80597c-0.19957,0 -0.36496,-0.04065 -0.49616,-0.12196c-0.1312,-0.08131 -0.23561,-0.18849 -0.31322,-0.32154c-0.07761,-0.13305 -0.1312,-0.28365 -0.16077,-0.45181c-0.02957,-0.16816 -0.04435,-0.34094 -0.04435,-0.51834v-5.21111c0,-0.24762 0.02402,-0.46198 0.07207,-0.64307c0.04805,-0.1811 0.12751,-0.32893 0.23838,-0.4435c0.11087,-0.11457 0.25594,-0.19957 0.43518,-0.25501c0.17925,-0.05544 0.40007,-0.08316 0.66248,-0.08316h1.37484c1.51159,0 2.65175,0.33355 3.42048,1.00064c0.76873,0.6671 1.1531,1.69361 1.1531,3.07954c0,0.67633 -0.10533,1.26397 -0.31599,1.76291c-0.21066,0.49894 -0.5091,0.91194 -0.89531,1.23902c-0.38621,0.32708 -0.85096,0.57008 -1.39425,0.729c-0.54329,0.15892 -1.1457,0.23838 -1.80726,0.23838zM249.25954,353.56417h0.75949c0.42132,0 0.78351,-0.04805 1.08657,-0.14414c0.30306,-0.09609 0.55345,-0.26056 0.75118,-0.49339c0.19773,-0.23284 0.34371,-0.52203 0.43795,-0.86759c0.09424,-0.34556 0.14137,-0.76965 0.14137,-1.27229c0,-0.93504 -0.19403,-1.6317 -0.58209,-2.08999c-0.38806,-0.45828 -0.98309,-0.68742 -1.78508,-0.68742h-0.80938z" data-paper-data="{&quot;glyphName&quot;:&quot;D&quot;,&quot;glyphIndex&quot;:8,&quot;lastGlyphOfWord&quot;:true,&quot;word&quot;:2}"></path><path d="M266.30836,353.72494c0,0.15153 -0.02772,0.29289 -0.08316,0.4241c-0.05544,0.1312 -0.13028,0.24577 -0.22452,0.34371c-0.09424,0.09794 -0.20327,0.17463 -0.32708,0.23006c-0.12381,0.05544 -0.25778,0.08316 -0.40192,0.08316c-0.14414,0 -0.27811,-0.02772 -0.40192,-0.08316c-0.12381,-0.05544 -0.23191,-0.13213 -0.32431,-0.23006c-0.0924,-0.09794 -0.16539,-0.21251 -0.21898,-0.34371c-0.05359,-0.1312 -0.08038,-0.27257 -0.08038,-0.4241v-5.44949c0,-0.21066 0.01386,-0.40931 0.04158,-0.59595c0.02772,-0.18664 0.08685,-0.34833 0.1774,-0.48508c0.09055,-0.13675 0.2236,-0.24485 0.39915,-0.32431c0.17555,-0.07946 0.41301,-0.11919 0.71237,-0.11919h2.00129c0.42502,0 0.83433,0.03696 1.22794,0.11087c0.3936,0.07392 0.74194,0.20419 1.04499,0.39083c0.30306,0.18664 0.54513,0.44073 0.72623,0.76226c0.1811,0.32154 0.27164,0.72808 0.27164,1.21962c0,0.42502 -0.07854,0.79368 -0.23561,1.10597c-0.15707,0.3123 -0.37882,0.57193 -0.66525,0.77889c-0.28643,0.20697 -0.63106,0.36127 -1.03391,0.4629c-0.40284,0.10164 -0.84819,0.15245 -1.33604,0.15245h-1.26951zM267.2397,350.49849c0.23653,0 0.45274,-0.02033 0.64862,-0.06098c0.19588,-0.04065 0.36311,-0.1081 0.50171,-0.20235c0.13859,-0.09424 0.2467,-0.21898 0.32431,-0.3742c0.07761,-0.15522 0.11642,-0.36404 0.11642,-0.62644c0,-0.25871 -0.03696,-0.4629 -0.11087,-0.61258c-0.07392,-0.14968 -0.17648,-0.27072 -0.30768,-0.36311c-0.1312,-0.0924 -0.28827,-0.15892 -0.47122,-0.19957c-0.18294,-0.04065 -0.38529,-0.06098 -0.60704,-0.06098h-1.02559v2.50022z" data-paper-data="{&quot;glyphName&quot;:&quot;P&quot;,&quot;glyphIndex&quot;:9,&quot;firstGlyphOfWord&quot;:true,&quot;word&quot;:3}"></path><path d="M276.3961,353.72494c0,0.15153 -0.02679,0.29289 -0.08038,0.4241c-0.05359,0.1312 -0.12751,0.24577 -0.22175,0.34371c-0.09424,0.09794 -0.20327,0.17463 -0.32708,0.23006c-0.12381,0.05544 -0.25778,0.08316 -0.40192,0.08316c-0.14414,0 -0.27811,-0.02772 -0.40192,-0.08316c-0.12381,-0.05544 -0.23191,-0.13213 -0.32431,-0.23006c-0.0924,-0.09794 -0.16539,-0.21251 -0.21898,-0.34371c-0.05359,-0.1312 -0.08038,-0.27257 -0.08038,-0.4241v-5.95397c0,-0.17001 0.03419,-0.31876 0.10256,-0.44627c0.06837,-0.12751 0.15984,-0.23376 0.27441,-0.31876c0.11457,-0.085 0.24854,-0.14876 0.40192,-0.19126c0.15338,-0.0425 0.31507,-0.06375 0.48508,-0.06375h2.22304c0.41024,0 0.80384,0.02679 1.18081,0.08038c0.37697,0.05359 0.70867,0.1543 0.9951,0.30213c0.28643,0.14783 0.51557,0.35295 0.68742,0.61535c0.17186,0.2624 0.25778,0.60427 0.25778,1.02559c0,0.22914 -0.03141,0.44627 -0.09424,0.65139c-0.06283,0.20512 -0.16446,0.38991 -0.30491,0.55437c-0.14044,0.16446 -0.32431,0.30491 -0.5516,0.42132c-0.22729,0.11642 -0.5054,0.20235 -0.83433,0.25778v0.02217c0.23653,0.02957 0.43888,0.07299 0.60704,0.13028c0.16816,0.05729 0.31137,0.13305 0.42964,0.22729c0.11827,0.09424 0.21436,0.20789 0.28827,0.34094c0.07392,0.13305 0.1349,0.29012 0.18294,0.47122c0.04805,0.1811 0.08685,0.38714 0.11642,0.61813c0.02957,0.23099 0.05729,0.49247 0.08316,0.78444c0.00739,0.08131 0.01294,0.15984 0.01663,0.23561c0.0037,0.07576 0.00554,0.1506 0.00554,0.22452c0,0.15892 -0.01478,0.30491 -0.04435,0.43795c-0.02957,0.13305 -0.08131,0.24762 -0.15522,0.34371c-0.07392,0.09609 -0.17555,0.17093 -0.30491,0.22452c-0.12935,0.05359 -0.29567,0.08038 -0.49894,0.08038c-0.18479,0 -0.33909,-0.0425 -0.4629,-0.12751c-0.12381,-0.085 -0.22637,-0.20142 -0.30768,-0.34925c-0.08131,-0.14783 -0.14321,-0.31876 -0.18571,-0.51279c-0.0425,-0.19403 -0.07669,-0.40192 -0.10256,-0.62367c-0.03696,-0.32154 -0.07484,-0.59041 -0.11365,-0.80661c-0.03881,-0.21621 -0.10071,-0.39083 -0.18571,-0.52388c-0.085,-0.13305 -0.20604,-0.22729 -0.36311,-0.28273c-0.15707,-0.05544 -0.37235,-0.08316 -0.64584,-0.08316h-1.12538zM277.24983,350.20467c0.19957,0 0.39915,-0.01201 0.59872,-0.03603c0.19957,-0.02402 0.37975,-0.07392 0.54051,-0.14968c0.16077,-0.07576 0.29105,-0.18664 0.39083,-0.33262c0.09979,-0.14598 0.14968,-0.34094 0.14968,-0.58486c0,-0.28088 -0.04805,-0.49154 -0.14414,-0.63199c-0.09609,-0.14044 -0.2236,-0.24577 -0.38252,-0.31599c-0.15892,-0.07022 -0.34279,-0.11365 -0.5516,-0.13028c-0.20881,-0.01663 -0.42594,-0.02495 -0.65139,-0.02495h-0.8371v2.2064z" data-paper-data="{&quot;glyphName&quot;:&quot;R&quot;,&quot;glyphIndex&quot;:10,&quot;word&quot;:3}"></path><path d="M285.81304,354.80597c-0.18849,0 -0.34648,-0.03881 -0.47399,-0.11642c-0.12751,-0.07761 -0.23006,-0.17832 -0.30768,-0.30213c-0.07761,-0.12381 -0.13305,-0.26333 -0.16631,-0.41855c-0.03326,-0.15522 -0.04989,-0.31045 -0.04989,-0.46567v-5.28317c0,-0.21066 0.01294,-0.40562 0.03881,-0.58486c0.02587,-0.17925 0.08316,-0.33355 0.17186,-0.4629c0.0887,-0.12935 0.21805,-0.23099 0.38806,-0.30491c0.17001,-0.07392 0.39915,-0.11087 0.68742,-0.11087h3.55907c0.10718,0 0.20789,0.0194 0.30213,0.05821c0.09424,0.03881 0.17648,0.09055 0.2467,0.15522c0.07022,0.06468 0.12566,0.14137 0.16631,0.23006c0.04065,0.0887 0.06098,0.18294 0.06098,0.28273c0,0.09979 -0.02033,0.19311 -0.06098,0.27996c-0.04065,0.08685 -0.09609,0.16262 -0.16631,0.22729c-0.07022,0.06468 -0.15245,0.11549 -0.2467,0.15245c-0.09424,0.03696 -0.19495,0.05544 -0.30213,0.05544h-2.85502v1.79617h2.60555c0.10718,0 0.20789,0.01848 0.30213,0.05544c0.09424,0.03696 0.17648,0.0887 0.2467,0.15522c0.07022,0.06652 0.12566,0.14321 0.16631,0.23006c0.04065,0.08685 0.06098,0.18017 0.06098,0.27996c0,0.09979 -0.02033,0.19311 -0.06098,0.27996c-0.04065,0.08685 -0.09609,0.16262 -0.16631,0.22729c-0.07022,0.06468 -0.15245,0.11549 -0.2467,0.15245c-0.09424,0.03696 -0.19495,0.05544 -0.30213,0.05544h-2.60555v1.94031h2.99361c0.09979,0 0.19311,0.01848 0.27996,0.05544c0.08685,0.03696 0.16354,0.0887 0.23006,0.15522c0.06652,0.06652 0.11827,0.14321 0.15522,0.23006c0.03696,0.08685 0.05544,0.18017 0.05544,0.27996c0,0.09979 -0.01848,0.19311 -0.05544,0.27996c-0.03696,0.08685 -0.0887,0.16262 -0.15522,0.22729c-0.06652,0.06468 -0.14321,0.11549 -0.23006,0.15245c-0.08685,0.03696 -0.18017,0.05544 -0.27996,0.05544z" data-paper-data="{&quot;glyphName&quot;:&quot;E&quot;,&quot;glyphIndex&quot;:11,&quot;word&quot;:3}"></path><path d="M295.93405,348.85755c0,0.1774 0.05913,0.32708 0.1774,0.44904c0.11827,0.12196 0.27257,0.22729 0.4629,0.31599c0.19033,0.0887 0.40562,0.16631 0.64584,0.23284c0.24023,0.06652 0.4823,0.1349 0.72623,0.20512c0.39176,0.11827 0.74748,0.24392 1.06717,0.37697c0.31969,0.13305 0.59318,0.29197 0.82047,0.47676c0.22729,0.18479 0.40284,0.40377 0.52665,0.65693c0.12381,0.25316 0.18571,0.55714 0.18571,0.91194c0,0.38806 -0.07669,0.73732 -0.23006,1.04776c-0.15338,0.31045 -0.3742,0.5747 -0.66248,0.79275c-0.28827,0.21805 -0.6366,0.38529 -1.04499,0.50171c-0.40839,0.11642 -0.86759,0.17463 -1.37762,0.17463c-0.2624,0 -0.52665,-0.01571 -0.79275,-0.04712c-0.2661,-0.03141 -0.52296,-0.07669 -0.77058,-0.13582c-0.24762,-0.05913 -0.48046,-0.1312 -0.69851,-0.21621c-0.21805,-0.085 -0.40839,-0.1811 -0.571,-0.28827c-0.16262,-0.10718 -0.29012,-0.22452 -0.38252,-0.35203c-0.0924,-0.12751 -0.13859,-0.26333 -0.13859,-0.40746c0,-0.0924 0.0194,-0.18294 0.05821,-0.27164c0.03881,-0.0887 0.0887,-0.16908 0.14968,-0.24115c0.06098,-0.07207 0.12935,-0.13028 0.20512,-0.17463c0.07576,-0.04435 0.1506,-0.06652 0.22452,-0.06652c0.06652,0 0.1312,0.01109 0.19403,0.03326c0.06283,0.02217 0.12658,0.04897 0.19126,0.08038c0.06468,0.03141 0.1312,0.0656 0.19957,0.10256c0.06837,0.03696 0.14137,0.07022 0.21898,0.09979c0.25501,0.11457 0.54144,0.21805 0.85928,0.31045c0.31784,0.0924 0.65046,0.13859 0.99787,0.13859c0.18849,0 0.36681,-0.01756 0.53497,-0.05267c0.16816,-0.03511 0.31599,-0.0887 0.4435,-0.16077c0.12751,-0.07207 0.22822,-0.16539 0.30213,-0.27996c0.07392,-0.11457 0.11087,-0.25316 0.11087,-0.41578c0,-0.12196 -0.02217,-0.23099 -0.06652,-0.32708c-0.04435,-0.09609 -0.10533,-0.18017 -0.18294,-0.25224c-0.07761,-0.07207 -0.16816,-0.1349 -0.27164,-0.18849c-0.10348,-0.05359 -0.21251,-0.10071 -0.32708,-0.14137l-0.24947,-0.0887c-0.04805,-0.01478 -0.09424,-0.03049 -0.13859,-0.04712c-0.04435,-0.01663 -0.0924,-0.03234 -0.14414,-0.04712l-0.28827,-0.08316c-0.06283,-0.01478 -0.11642,-0.02864 -0.16077,-0.04158c-0.04435,-0.01294 -0.08408,-0.02587 -0.11919,-0.03881c-0.03511,-0.01294 -0.0693,-0.02587 -0.10256,-0.03881c-0.03326,-0.01294 -0.07207,-0.02679 -0.11642,-0.04158l-0.52111,-0.18294c-0.33632,-0.12196 -0.62459,-0.24947 -0.86482,-0.38252c-0.24023,-0.13305 -0.43611,-0.28273 -0.58764,-0.44904c-0.15153,-0.16631 -0.26333,-0.35572 -0.3354,-0.56823c-0.07207,-0.21251 -0.1081,-0.45921 -0.1081,-0.74009c0,-0.36958 0.07669,-0.70405 0.23006,-1.00341c0.15338,-0.29936 0.37328,-0.55437 0.6597,-0.76503c0.28643,-0.21066 0.63383,-0.37328 1.04222,-0.48785c0.40839,-0.11457 0.86759,-0.17186 1.37762,-0.17186c0.18479,0 0.38621,0.01201 0.60427,0.03603c0.21805,0.02402 0.43611,0.06006 0.65416,0.1081c0.21805,0.04805 0.42779,0.10995 0.62921,0.18571c0.20142,0.07576 0.37975,0.16446 0.53497,0.2661c0.15522,0.10164 0.27996,0.21713 0.3742,0.34648c0.09424,0.12935 0.14137,0.27349 0.14137,0.43241c0,0.0924 -0.01756,0.1774 -0.05267,0.25501c-0.03511,0.07761 -0.08223,0.14414 -0.14137,0.19957c-0.05913,0.05544 -0.12843,0.09886 -0.20789,0.13028c-0.07946,0.03141 -0.16169,0.04712 -0.2467,0.04712c-0.11087,0 -0.21251,-0.02402 -0.30491,-0.07207c-0.1737,-0.0887 -0.3354,-0.16446 -0.48508,-0.22729c-0.14968,-0.06283 -0.29844,-0.11457 -0.44627,-0.15522c-0.14783,-0.04065 -0.30029,-0.07022 -0.45736,-0.0887c-0.15707,-0.01848 -0.32985,-0.02772 -0.51834,-0.02772c-0.1774,0 -0.35203,0.01571 -0.52388,0.04712c-0.17186,0.03141 -0.32523,0.08131 -0.46013,0.14968c-0.1349,0.06837 -0.24392,0.15615 -0.32708,0.26333c-0.08316,0.10718 -0.12473,0.23838 -0.12473,0.3936z" data-paper-data="{&quot;glyphName&quot;:&quot;S&quot;,&quot;glyphIndex&quot;:12,&quot;word&quot;:3}"></path><path d="M305.19577,354.80597c-0.18849,0 -0.34648,-0.03881 -0.47399,-0.11642c-0.12751,-0.07761 -0.23006,-0.17832 -0.30768,-0.30213c-0.07761,-0.12381 -0.13305,-0.26333 -0.16631,-0.41855c-0.03326,-0.15522 -0.04989,-0.31045 -0.04989,-0.46567v-5.28317c0,-0.21066 0.01294,-0.40562 0.03881,-0.58486c0.02587,-0.17925 0.08316,-0.33355 0.17186,-0.4629c0.0887,-0.12935 0.21805,-0.23099 0.38806,-0.30491c0.17001,-0.07392 0.39915,-0.11087 0.68742,-0.11087h3.55907c0.10718,0 0.20789,0.0194 0.30213,0.05821c0.09424,0.03881 0.17648,0.09055 0.2467,0.15522c0.07022,0.06468 0.12566,0.14137 0.16631,0.23006c0.04065,0.0887 0.06098,0.18294 0.06098,0.28273c0,0.09979 -0.02033,0.19311 -0.06098,0.27996c-0.04065,0.08685 -0.09609,0.16262 -0.16631,0.22729c-0.07022,0.06468 -0.15245,0.11549 -0.2467,0.15245c-0.09424,0.03696 -0.19495,0.05544 -0.30213,0.05544h-2.85502v1.79617h2.60555c0.10718,0 0.20789,0.01848 0.30213,0.05544c0.09424,0.03696 0.17648,0.0887 0.2467,0.15522c0.07022,0.06652 0.12566,0.14321 0.16631,0.23006c0.04065,0.08685 0.06098,0.18017 0.06098,0.27996c0,0.09979 -0.02033,0.19311 -0.06098,0.27996c-0.04065,0.08685 -0.09609,0.16262 -0.16631,0.22729c-0.07022,0.06468 -0.15245,0.11549 -0.2467,0.15245c-0.09424,0.03696 -0.19495,0.05544 -0.30213,0.05544h-2.60555v1.94031h2.99361c0.09979,0 0.19311,0.01848 0.27996,0.05544c0.08685,0.03696 0.16354,0.0887 0.23006,0.15522c0.06652,0.06652 0.11827,0.14321 0.15522,0.23006c0.03696,0.08685 0.05544,0.18017 0.05544,0.27996c0,0.09979 -0.01848,0.19311 -0.05544,0.27996c-0.03696,0.08685 -0.0887,0.16262 -0.15522,0.22729c-0.06652,0.06468 -0.14321,0.11549 -0.23006,0.15245c-0.08685,0.03696 -0.18017,0.05544 -0.27996,0.05544z" data-paper-data="{&quot;glyphName&quot;:&quot;E&quot;,&quot;glyphIndex&quot;:13,&quot;word&quot;:3}"></path><path d="M315.30014,353.9356c0,0.12196 -0.0231,0.23561 -0.0693,0.34094c-0.0462,0.10533 -0.10903,0.1968 -0.18849,0.27441c-0.07946,0.07761 -0.17186,0.13952 -0.27719,0.18571c-0.10533,0.0462 -0.21898,0.0693 -0.34094,0.0693c-0.12196,0 -0.23561,-0.0231 -0.34094,-0.0693c-0.10533,-0.0462 -0.1968,-0.1081 -0.27441,-0.18571c-0.07761,-0.07761 -0.13859,-0.16908 -0.18294,-0.27441c-0.04435,-0.10533 -0.06652,-0.21898 -0.06652,-0.34094v-6.05375c0,-0.1811 0.02679,-0.34186 0.08038,-0.4823c0.05359,-0.14044 0.12566,-0.25871 0.21621,-0.3548c0.09055,-0.09609 0.1968,-0.16908 0.31876,-0.21898c0.12196,-0.04989 0.25316,-0.07484 0.3936,-0.07484c0.11827,0 0.23376,0.0231 0.34648,0.0693c0.11272,0.0462 0.22083,0.1081 0.32431,0.18571c0.10348,0.07761 0.20327,0.16908 0.29936,0.27441c0.09609,0.10533 0.18849,0.21713 0.27719,0.3354l3.2708,4.43498v-4.42944c0,-0.12196 0.02217,-0.23561 0.06652,-0.34094c0.04435,-0.10533 0.10533,-0.1968 0.18294,-0.27441c0.07761,-0.07761 0.16908,-0.13952 0.27441,-0.18571c0.10533,-0.0462 0.21898,-0.0693 0.34094,-0.0693c0.12196,0 0.23561,0.0231 0.34094,0.0693c0.10533,0.0462 0.1968,0.1081 0.27441,0.18571c0.07761,0.07761 0.13952,0.16908 0.18571,0.27441c0.0462,0.10533 0.0693,0.21898 0.0693,0.34094v5.64352c0,0.20327 -0.01109,0.39822 -0.03326,0.58486c-0.02217,0.18664 -0.06837,0.35018 -0.13859,0.49062c-0.07022,0.14044 -0.17001,0.25316 -0.29936,0.33817c-0.12935,0.085 -0.30121,0.12751 -0.51557,0.12751c-0.11457,0 -0.22637,-0.02217 -0.3354,-0.06652c-0.10903,-0.04435 -0.21436,-0.10533 -0.31599,-0.18294c-0.10164,-0.07761 -0.2005,-0.16908 -0.29659,-0.27441c-0.09609,-0.10533 -0.19033,-0.21898 -0.28273,-0.34094l-3.30406,-4.49042z" data-paper-data="{&quot;glyphName&quot;:&quot;N&quot;,&quot;glyphIndex&quot;:14,&quot;word&quot;:3}"></path><path d="M324.87786,348.22002c-0.10718,0 -0.20881,-0.0194 -0.30491,-0.05821c-0.09609,-0.03881 -0.18017,-0.09147 -0.25224,-0.158c-0.07207,-0.06652 -0.12935,-0.14414 -0.17186,-0.23284c-0.0425,-0.0887 -0.06375,-0.18294 -0.06375,-0.28273c0,-0.09979 0.02125,-0.19495 0.06375,-0.2855c0.0425,-0.09055 0.09979,-0.16908 0.17186,-0.23561c0.07207,-0.06652 0.15615,-0.11919 0.25224,-0.158c0.09609,-0.03881 0.19773,-0.05821 0.30491,-0.05821h5.06142c0.10718,0 0.20881,0.0194 0.30491,0.05821c0.09609,0.03881 0.18017,0.09147 0.25224,0.158c0.07207,0.06652 0.12935,0.14506 0.17186,0.23561c0.0425,0.09055 0.06375,0.18571 0.06375,0.2855c0,0.09979 -0.02125,0.19403 -0.06375,0.28273c-0.0425,0.0887 -0.09979,0.16631 -0.17186,0.23284c-0.07207,0.06652 -0.15615,0.11919 -0.25224,0.158c-0.09609,0.03881 -0.19773,0.05821 -0.30491,0.05821h-1.48572v5.50492c0,0.15153 -0.02679,0.29289 -0.08038,0.4241c-0.05359,0.1312 -0.12751,0.24577 -0.22175,0.34371c-0.09424,0.09794 -0.20327,0.17463 -0.32708,0.23006c-0.12381,0.05544 -0.25778,0.08316 -0.40192,0.08316c-0.14414,0 -0.27811,-0.02772 -0.40192,-0.08316c-0.12381,-0.05544 -0.23191,-0.13213 -0.32431,-0.23006c-0.0924,-0.09794 -0.16539,-0.21251 -0.21898,-0.34371c-0.05359,-0.1312 -0.08038,-0.27257 -0.08038,-0.4241v-5.50492z" data-paper-data="{&quot;glyphName&quot;:&quot;T&quot;,&quot;glyphIndex&quot;:15,&quot;word&quot;:3}"></path><path d="M336.53447,348.26991l-1.21962,3.56462h2.46142l-1.21408,-3.56462zM340.14898,353.12622c0.02587,0.06652 0.05359,0.13582 0.08316,0.20789c0.02957,0.07207 0.05729,0.14506 0.08316,0.21898c0.02587,0.07392 0.04712,0.14506 0.06375,0.21343c0.01663,0.06837 0.02495,0.13028 0.02495,0.18571c0,0.13675 -0.02495,0.25778 -0.07484,0.36311c-0.04989,0.10533 -0.11734,0.19403 -0.20235,0.2661c-0.085,0.07207 -0.18387,0.12751 -0.29659,0.16631c-0.11272,0.03881 -0.23191,0.05821 -0.35757,0.05821c-0.14414,0 -0.26795,-0.02033 -0.37143,-0.06098c-0.10348,-0.04065 -0.19588,-0.10533 -0.27719,-0.19403c-0.08131,-0.0887 -0.15615,-0.20419 -0.22452,-0.34648c-0.06837,-0.14229 -0.14137,-0.31692 -0.21898,-0.52388l-0.2661,-0.70405h-3.13775l-0.22729,0.70405c-0.06652,0.21066 -0.13397,0.38806 -0.20235,0.5322c-0.06837,0.14414 -0.14414,0.25963 -0.22729,0.34648c-0.08316,0.08685 -0.17832,0.14968 -0.2855,0.18849c-0.10718,0.03881 -0.23284,0.05821 -0.37697,0.05821c-0.12566,0 -0.24485,-0.0194 -0.35757,-0.05821c-0.11272,-0.03881 -0.21159,-0.09424 -0.29659,-0.16631c-0.085,-0.07207 -0.15245,-0.16077 -0.20235,-0.2661c-0.04989,-0.10533 -0.07484,-0.22637 -0.07484,-0.36311c0,-0.05544 0.00832,-0.11734 0.02495,-0.18571c0.01663,-0.06837 0.03788,-0.13952 0.06375,-0.21343c0.02587,-0.07392 0.05359,-0.14691 0.08316,-0.21898c0.02957,-0.07207 0.05729,-0.14137 0.08316,-0.20789l1.49126,-4.03029c0.14044,-0.37697 0.27441,-0.71052 0.40192,-1.00064c0.12751,-0.29012 0.26795,-0.53497 0.42132,-0.73454c0.15338,-0.19957 0.32985,-0.35018 0.52943,-0.45181c0.19957,-0.10164 0.44165,-0.15245 0.72623,-0.15245c0.2661,0 0.49339,0.03973 0.68188,0.11919c0.18849,0.07946 0.35849,0.21066 0.51002,0.3936c0.15153,0.18294 0.29567,0.4241 0.43241,0.72346c0.13675,0.29936 0.28827,0.6671 0.45459,1.1032z" data-paper-data="{&quot;glyphName&quot;:&quot;A&quot;,&quot;glyphIndex&quot;:16,&quot;word&quot;:3}"></path><path d="M343.24053,348.22002c-0.10718,0 -0.20881,-0.0194 -0.30491,-0.05821c-0.09609,-0.03881 -0.18017,-0.09147 -0.25224,-0.158c-0.07207,-0.06652 -0.12935,-0.14414 -0.17186,-0.23284c-0.0425,-0.0887 -0.06375,-0.18294 -0.06375,-0.28273c0,-0.09979 0.02125,-0.19495 0.06375,-0.2855c0.0425,-0.09055 0.09979,-0.16908 0.17186,-0.23561c0.07207,-0.06652 0.15615,-0.11919 0.25224,-0.158c0.09609,-0.03881 0.19773,-0.05821 0.30491,-0.05821h5.06142c0.10718,0 0.20881,0.0194 0.30491,0.05821c0.09609,0.03881 0.18017,0.09147 0.25224,0.158c0.07207,0.06652 0.12935,0.14506 0.17186,0.23561c0.0425,0.09055 0.06375,0.18571 0.06375,0.2855c0,0.09979 -0.02125,0.19403 -0.06375,0.28273c-0.0425,0.0887 -0.09979,0.16631 -0.17186,0.23284c-0.07207,0.06652 -0.15615,0.11919 -0.25224,0.158c-0.09609,0.03881 -0.19773,0.05821 -0.30491,0.05821h-1.48572v5.50492c0,0.15153 -0.02679,0.29289 -0.08038,0.4241c-0.05359,0.1312 -0.12751,0.24577 -0.22175,0.34371c-0.09424,0.09794 -0.20327,0.17463 -0.32708,0.23006c-0.12381,0.05544 -0.25778,0.08316 -0.40192,0.08316c-0.14414,0 -0.27811,-0.02772 -0.40192,-0.08316c-0.12381,-0.05544 -0.23191,-0.13213 -0.32431,-0.23006c-0.0924,-0.09794 -0.16539,-0.21251 -0.21898,-0.34371c-0.05359,-0.1312 -0.08038,-0.27257 -0.08038,-0.4241v-5.50492z" data-paper-data="{&quot;glyphName&quot;:&quot;T&quot;,&quot;glyphIndex&quot;:17,&quot;word&quot;:3}"></path><path d="M354.51463,353.72494c0,0.15153 -0.02679,0.29289 -0.08038,0.4241c-0.05359,0.1312 -0.12751,0.24577 -0.22175,0.34371c-0.09424,0.09794 -0.20327,0.17463 -0.32708,0.23006c-0.12381,0.05544 -0.25778,0.08316 -0.40192,0.08316c-0.14414,0 -0.27811,-0.02772 -0.40192,-0.08316c-0.12381,-0.05544 -0.23191,-0.13213 -0.32431,-0.23006c-0.0924,-0.09794 -0.16539,-0.21251 -0.21898,-0.34371c-0.05359,-0.1312 -0.08038,-0.27257 -0.08038,-0.4241v-5.89298c0,-0.15153 0.02679,-0.29289 0.08038,-0.4241c0.05359,-0.1312 0.12658,-0.24577 0.21898,-0.34371c0.0924,-0.09794 0.2005,-0.17463 0.32431,-0.23006c0.12381,-0.05544 0.25778,-0.08316 0.40192,-0.08316c0.14414,0 0.27811,0.02772 0.40192,0.08316c0.12381,0.05544 0.23284,0.13213 0.32708,0.23006c0.09424,0.09794 0.16816,0.21251 0.22175,0.34371c0.05359,0.1312 0.08038,0.27257 0.08038,0.4241z" data-paper-data="{&quot;glyphName&quot;:&quot;I&quot;,&quot;glyphIndex&quot;:18,&quot;word&quot;:3}"></path><path d="M360.4224,350.78677c0,0.91656 0.14598,1.60861 0.43795,2.07613c0.29197,0.46752 0.7484,0.70128 1.3693,0.70128c0.60981,0 1.0644,-0.23284 1.36376,-0.69851c0.29936,-0.46567 0.44904,-1.15864 0.44904,-2.0789c0,-0.4435 -0.03603,-0.83803 -0.1081,-1.18359c-0.07207,-0.34556 -0.18202,-0.6366 -0.32985,-0.87314c-0.14783,-0.23653 -0.3354,-0.4167 -0.56269,-0.54051c-0.22729,-0.12381 -0.49801,-0.18571 -0.81216,-0.18571c-0.31045,0 -0.57932,0.0619 -0.80661,0.18571c-0.22729,0.12381 -0.41486,0.30398 -0.56269,0.54051c-0.14783,0.23653 -0.25778,0.52758 -0.32985,0.87314c-0.07207,0.34556 -0.1081,0.74009 -0.1081,1.18359zM358.26589,350.78677c0,-0.60981 0.08223,-1.17342 0.2467,-1.69084c0.16446,-0.51741 0.41116,-0.96276 0.74009,-1.33604c0.32893,-0.37328 0.74101,-0.66525 1.23625,-0.87591c0.49524,-0.21066 1.07548,-0.31599 1.74073,-0.31599c0.64677,0 1.21777,0.10164 1.71301,0.30491c0.49524,0.20327 0.90917,0.49062 1.2418,0.86205c0.33262,0.37143 0.58394,0.81585 0.75395,1.33327c0.17001,0.51741 0.25501,1.09027 0.25501,1.71856c0,0.6172 -0.08316,1.18451 -0.24947,1.70192c-0.16631,0.51741 -0.41578,0.96184 -0.7484,1.33327c-0.33262,0.37143 -0.74656,0.66063 -1.2418,0.86759c-0.49524,0.20697 -1.06994,0.31045 -1.7241,0.31045c-0.63938,0 -1.20576,-0.09979 -1.69915,-0.29936c-0.49339,-0.19957 -0.90825,-0.48323 -1.24457,-0.85096c-0.33632,-0.36773 -0.59041,-0.81031 -0.76226,-1.32772c-0.17186,-0.51741 -0.25778,-1.09581 -0.25778,-1.73519z" data-paper-data="{&quot;glyphName&quot;:&quot;O&quot;,&quot;glyphIndex&quot;:19,&quot;word&quot;:3}"></path><path d="M371.60225,353.9356c0,0.12196 -0.0231,0.23561 -0.0693,0.34094c-0.0462,0.10533 -0.10903,0.1968 -0.18849,0.27441c-0.07946,0.07761 -0.17186,0.13952 -0.27719,0.18571c-0.10533,0.0462 -0.21898,0.0693 -0.34094,0.0693c-0.12196,0 -0.23561,-0.0231 -0.34094,-0.0693c-0.10533,-0.0462 -0.1968,-0.1081 -0.27441,-0.18571c-0.07761,-0.07761 -0.13859,-0.16908 -0.18294,-0.27441c-0.04435,-0.10533 -0.06652,-0.21898 -0.06652,-0.34094v-6.05375c0,-0.1811 0.02679,-0.34186 0.08038,-0.4823c0.05359,-0.14044 0.12566,-0.25871 0.21621,-0.3548c0.09055,-0.09609 0.1968,-0.16908 0.31876,-0.21898c0.12196,-0.04989 0.25316,-0.07484 0.3936,-0.07484c0.11827,0 0.23376,0.0231 0.34648,0.0693c0.11272,0.0462 0.22083,0.1081 0.32431,0.18571c0.10348,0.07761 0.20327,0.16908 0.29936,0.27441c0.09609,0.10533 0.18849,0.21713 0.27719,0.3354l3.2708,4.43498v-4.42944c0,-0.12196 0.02217,-0.23561 0.06652,-0.34094c0.04435,-0.10533 0.10533,-0.1968 0.18294,-0.27441c0.07761,-0.07761 0.16908,-0.13952 0.27441,-0.18571c0.10533,-0.0462 0.21898,-0.0693 0.34094,-0.0693c0.12196,0 0.23561,0.0231 0.34094,0.0693c0.10533,0.0462 0.1968,0.1081 0.27441,0.18571c0.07761,0.07761 0.13952,0.16908 0.18571,0.27441c0.0462,0.10533 0.0693,0.21898 0.0693,0.34094v5.64352c0,0.20327 -0.01109,0.39822 -0.03326,0.58486c-0.02217,0.18664 -0.06837,0.35018 -0.13859,0.49062c-0.07022,0.14044 -0.17001,0.25316 -0.29936,0.33817c-0.12935,0.085 -0.30121,0.12751 -0.51557,0.12751c-0.11457,0 -0.22637,-0.02217 -0.3354,-0.06652c-0.10903,-0.04435 -0.21436,-0.10533 -0.31599,-0.18294c-0.10164,-0.07761 -0.2005,-0.16908 -0.29659,-0.27441c-0.09609,-0.10533 -0.19033,-0.21898 -0.28273,-0.34094l-3.30406,-4.49042z" data-paper-data="{&quot;glyphName&quot;:&quot;N&quot;,&quot;glyphIndex&quot;:20,&quot;word&quot;:3}"></path><path d="M382.84309,348.85755c0,0.1774 0.05913,0.32708 0.1774,0.44904c0.11827,0.12196 0.27257,0.22729 0.4629,0.31599c0.19033,0.0887 0.40562,0.16631 0.64584,0.23284c0.24023,0.06652 0.4823,0.1349 0.72623,0.20512c0.39176,0.11827 0.74748,0.24392 1.06717,0.37697c0.31969,0.13305 0.59318,0.29197 0.82047,0.47676c0.22729,0.18479 0.40284,0.40377 0.52665,0.65693c0.12381,0.25316 0.18571,0.55714 0.18571,0.91194c0,0.38806 -0.07669,0.73732 -0.23006,1.04776c-0.15338,0.31045 -0.3742,0.5747 -0.66248,0.79275c-0.28827,0.21805 -0.6366,0.38529 -1.04499,0.50171c-0.40839,0.11642 -0.86759,0.17463 -1.37762,0.17463c-0.2624,0 -0.52665,-0.01571 -0.79275,-0.04712c-0.2661,-0.03141 -0.52296,-0.07669 -0.77058,-0.13582c-0.24762,-0.05913 -0.48046,-0.1312 -0.69851,-0.21621c-0.21805,-0.085 -0.40839,-0.1811 -0.571,-0.28827c-0.16262,-0.10718 -0.29012,-0.22452 -0.38252,-0.35203c-0.0924,-0.12751 -0.13859,-0.26333 -0.13859,-0.40746c0,-0.0924 0.0194,-0.18294 0.05821,-0.27164c0.03881,-0.0887 0.0887,-0.16908 0.14968,-0.24115c0.06098,-0.07207 0.12935,-0.13028 0.20512,-0.17463c0.07576,-0.04435 0.1506,-0.06652 0.22452,-0.06652c0.06652,0 0.1312,0.01109 0.19403,0.03326c0.06283,0.02217 0.12658,0.04897 0.19126,0.08038c0.06468,0.03141 0.1312,0.0656 0.19957,0.10256c0.06837,0.03696 0.14137,0.07022 0.21898,0.09979c0.25501,0.11457 0.54144,0.21805 0.85928,0.31045c0.31784,0.0924 0.65046,0.13859 0.99787,0.13859c0.18849,0 0.36681,-0.01756 0.53497,-0.05267c0.16816,-0.03511 0.31599,-0.0887 0.4435,-0.16077c0.12751,-0.07207 0.22822,-0.16539 0.30213,-0.27996c0.07392,-0.11457 0.11087,-0.25316 0.11087,-0.41578c0,-0.12196 -0.02217,-0.23099 -0.06652,-0.32708c-0.04435,-0.09609 -0.10533,-0.18017 -0.18294,-0.25224c-0.07761,-0.07207 -0.16816,-0.1349 -0.27164,-0.18849c-0.10348,-0.05359 -0.21251,-0.10071 -0.32708,-0.14137l-0.24947,-0.0887c-0.04805,-0.01478 -0.09424,-0.03049 -0.13859,-0.04712c-0.04435,-0.01663 -0.0924,-0.03234 -0.14414,-0.04712l-0.28827,-0.08316c-0.06283,-0.01478 -0.11642,-0.02864 -0.16077,-0.04158c-0.04435,-0.01294 -0.08408,-0.02587 -0.11919,-0.03881c-0.03511,-0.01294 -0.0693,-0.02587 -0.10256,-0.03881c-0.03326,-0.01294 -0.07207,-0.02679 -0.11642,-0.04158l-0.52111,-0.18294c-0.33632,-0.12196 -0.62459,-0.24947 -0.86482,-0.38252c-0.24023,-0.13305 -0.43611,-0.28273 -0.58764,-0.44904c-0.15153,-0.16631 -0.26333,-0.35572 -0.3354,-0.56823c-0.07207,-0.21251 -0.1081,-0.45921 -0.1081,-0.74009c0,-0.36958 0.07669,-0.70405 0.23006,-1.00341c0.15338,-0.29936 0.37328,-0.55437 0.6597,-0.76503c0.28643,-0.21066 0.63383,-0.37328 1.04222,-0.48785c0.40839,-0.11457 0.86759,-0.17186 1.37762,-0.17186c0.18479,0 0.38621,0.01201 0.60427,0.03603c0.21805,0.02402 0.43611,0.06006 0.65416,0.1081c0.21805,0.04805 0.42779,0.10995 0.62921,0.18571c0.20142,0.07576 0.37975,0.16446 0.53497,0.2661c0.15522,0.10164 0.27996,0.21713 0.3742,0.34648c0.09424,0.12935 0.14137,0.27349 0.14137,0.43241c0,0.0924 -0.01756,0.1774 -0.05267,0.25501c-0.03511,0.07761 -0.08223,0.14414 -0.14137,0.19957c-0.05913,0.05544 -0.12843,0.09886 -0.20789,0.13028c-0.07946,0.03141 -0.16169,0.04712 -0.2467,0.04712c-0.11087,0 -0.21251,-0.02402 -0.30491,-0.07207c-0.1737,-0.0887 -0.3354,-0.16446 -0.48508,-0.22729c-0.14968,-0.06283 -0.29844,-0.11457 -0.44627,-0.15522c-0.14783,-0.04065 -0.30029,-0.07022 -0.45736,-0.0887c-0.15707,-0.01848 -0.32985,-0.02772 -0.51834,-0.02772c-0.1774,0 -0.35203,0.01571 -0.52388,0.04712c-0.17186,0.03141 -0.32523,0.08131 -0.46013,0.14968c-0.1349,0.06837 -0.24392,0.15615 -0.32708,0.26333c-0.08316,0.10718 -0.12473,0.23838 -0.12473,0.3936z" data-paper-data="{&quot;glyphName&quot;:&quot;S&quot;,&quot;glyphIndex&quot;:21,&quot;lastGlyphOfWord&quot;:true,&quot;word&quot;:3}"></path><path d="M162.54453,338.38014v-1.37115h224.91094v1.37115z" data-paper-data="{&quot;isContainerTopLineAboveSecondaryText&quot;:true}"></path></g><g data-paper-data="{&quot;isPrimaryText&quot;:true}" fill="#00b398" fill-rule="nonzero"><path d="M186.55814,308.10378c17.57697,-8.16958 26.24167,-19.92882 26.11789,-30.45024c-0.12378,-7.17933 -5.57017,-13.3684 -16.09159,-13.3684c-7.30311,0 -19.68125,1.85672 -29.83134,7.55067c-1.9805,1.23781 -3.21832,4.57991 -0.49513,7.55067c23.14714,-13.98731 41.34301,-14.11109 41.34301,-3.21832c0,10.76899 -7.92201,19.68125 -26.7368,26.86058c4.08479,-9.53117 8.29336,-18.56722 10.89277,-24.13739c-1.3616,-2.22807 -3.46588,-3.46588 -6.31286,-3.71344c-3.46588,7.30311 -8.6647,19.55747 -13.12084,30.82159c-2.35185,0.74269 -4.95126,1.48538 -7.55067,2.22807c0.24756,2.72319 2.10429,4.57991 4.7037,5.07504c-3.96101,10.15008 -6.93176,18.44344 -6.93176,19.92882c0,2.10429 2.10429,4.33235 5.57017,4.33235c1.48538,-6.43664 5.07504,-15.96781 9.03605,-25.74655c1.23781,-0.49513 2.47563,-0.86647 3.58966,-1.3616c0.49513,14.11109 16.46294,32.92587 25.25142,33.29722c1.73294,0.12378 5.3226,-2.35185 5.3226,-3.71344c-7.55067,-1.3616 -21.66176,-11.14033 -24.7563,-31.93562z" data-paper-data="{&quot;glyphName&quot;:&quot;R&quot;,&quot;glyphIndex&quot;:0,&quot;firstGlyphOfWord&quot;:true,&quot;word&quot;:1}"></path><path d="M226.9109,326.29966c12.99706,0 29.95512,-14.35865 31.68806,-25.62277c0.24756,-0.99025 -0.74269,-1.3616 -1.23781,-1.3616c-3.71344,12.13058 -20.17638,22.40445 -28.0984,22.40445c-8.41714,0 -12.13058,-3.09454 -12.74949,-7.05554c12.37815,-3.46588 18.93857,-10.27386 18.93857,-15.72025c0,-2.72319 -2.59941,-4.57991 -5.19882,-4.57991c-10.27386,0 -18.81478,8.29336 -18.81478,17.82453c0,9.40739 7.92201,14.11109 15.47268,14.11109zM216.51325,311.19832c1.23781,-7.42689 6.93176,-12.37815 12.62571,-12.25437c1.23781,0 1.85672,0.49513 1.85672,1.48538c0,2.72319 -6.31286,8.29336 -14.48243,10.76899z" data-paper-data="{&quot;glyphName&quot;:&quot;e&quot;,&quot;glyphIndex&quot;:1,&quot;word&quot;:1}"></path><path d="M258.59895,327.66125c4.82748,-2.47563 8.78848,-7.79823 12.74949,-13.3684c1.11403,0.49513 2.35185,0.74269 3.58966,0.74269c7.17933,0 15.84403,-7.79823 18.19588,-13.61596c0.37134,-1.11403 -0.61891,-1.85672 -2.22807,-2.10429c-1.11403,5.57017 -8.91227,13.12084 -14.85378,13.12084c-0.99025,0 -1.9805,-0.24756 -2.84697,-0.74269c4.95126,-6.56042 6.56042,-10.15008 6.56042,-12.25437c0,-1.73294 -1.3616,-2.22807 -2.72319,-2.22807c-4.95126,0 -8.41714,6.56042 -8.41714,11.51168c0,1.3616 0.24756,2.47563 0.74269,3.46588c-2.59941,4.08479 -6.56042,8.29336 -9.28361,9.90252c-0.74269,-1.73294 -1.48538,-4.08479 -1.48538,-7.79823c0,-3.71344 0.74269,-8.78848 2.59941,-15.84403c-2.97076,-0.12378 -5.57017,-0.37134 -7.79823,2.72319c-0.61891,3.46588 -0.99025,6.80798 -0.99025,9.90252c0,9.15983 2.72319,15.59647 6.18907,16.58672zM271.47223,309.46538c-0.12378,-0.49513 -0.24756,-0.99025 -0.24756,-1.48538c0,-3.21832 2.22807,-7.79823 4.57991,-7.92201c1.11403,0 0.61891,2.35185 -4.33235,9.40739z" data-paper-data="{&quot;glyphName&quot;:&quot;v&quot;,&quot;glyphIndex&quot;:2,&quot;word&quot;:1}"></path><path d="M301.30356,326.29966c12.99706,0 29.95512,-14.35865 31.68806,-25.62277c0.24756,-0.99025 -0.74269,-1.3616 -1.23781,-1.3616c-3.71344,12.13058 -20.17638,22.40445 -28.0984,22.40445c-8.41714,0 -12.13058,-3.09454 -12.74949,-7.05554c12.37815,-3.46588 18.93857,-10.27386 18.93857,-15.72025c0,-2.72319 -2.59941,-4.57991 -5.19882,-4.57991c-10.27386,0 -18.81478,8.29336 -18.81478,17.82453c0,9.40739 7.92201,14.11109 15.47268,14.11109zM290.90592,311.19832c1.23781,-7.42689 6.93176,-12.37815 12.62571,-12.25437c1.23781,0 1.85672,0.49513 1.85672,1.48538c0,2.72319 -6.31286,8.29336 -14.48243,10.76899z" data-paper-data="{&quot;glyphName&quot;:&quot;e&quot;,&quot;glyphIndex&quot;:3,&quot;word&quot;:1}"></path><path d="M333.85809,330.26066c8.29336,0 25.3752,-21.90932 25.3752,-29.58377c0,-0.99025 -0.74269,-1.3616 -1.3616,-1.3616c-3.58966,12.13058 -19.30991,27.60327 -23.51848,27.60327c-2.22807,0 -2.97076,-2.97076 -2.97076,-6.18907c0,-3.09454 0.61891,-6.43664 0.86647,-7.79823c8.0458,-7.92201 25.99411,-28.59352 25.99411,-40.22898c0,-2.22807 -3.46588,-4.33235 -6.18907,-4.33235c-10.76899,0 -26.48924,32.0594 -26.48924,50.1315c0,6.93176 2.35185,11.75924 8.29336,11.75924zM333.98187,306.12328c1.73294,-5.57017 11.3879,-35.15394 18.0721,-35.15394c1.73294,0 1.85672,1.11403 1.85672,2.84697c0,9.40739 -13.73974,25.74655 -19.92882,32.30697z" data-paper-data="{&quot;glyphName&quot;:&quot;l&quot;,&quot;glyphIndex&quot;:4,&quot;word&quot;:1}"></path><path d="M387.45547,301.54336c0,-0.74269 -0.86647,-1.60916 -1.73294,-1.60916c-0.49513,4.45613 -9.40739,11.14033 -16.7105,12.37815c1.23781,-2.59941 1.9805,-5.19882 1.85672,-7.67445c0,-2.84697 -1.85672,-7.30311 -7.79823,-7.30311c-5.07504,0.24756 -8.41714,2.35185 -9.40739,7.05554c-4.95126,5.44638 -4.95126,11.26411 -4.95126,12.99706c0,1.85672 2.72319,5.19882 4.95126,5.19882c5.57017,0 10.39764,-3.21832 13.49218,-7.30311c8.54092,-0.49513 17.94831,-7.67445 20.30016,-13.73974zM361.83271,301.54336c2.97076,0 4.7037,1.48538 4.82748,3.58966c0.12378,1.9805 -0.99025,4.45613 -2.72319,6.80798c-2.59941,-0.99025 -4.33235,-3.46588 -4.33235,-8.0458c0,-1.3616 0.99025,-2.35185 2.22807,-2.35185zM354.03447,318.74899c-0.74269,0 -0.86647,-0.74269 -1.23781,-2.10429c-0.37134,-1.60916 0.49513,-4.20857 2.59941,-7.55067c1.73294,2.84697 3.96101,4.45613 6.31286,5.44638c-2.47563,2.47563 -5.44638,4.20857 -7.67445,4.20857z" data-paper-data="{&quot;glyphName&quot;:&quot;o&quot;,&quot;glyphIndex&quot;:5,&quot;lastGlyphOfWord&quot;:true,&quot;word&quot;:1}"></path></g><g data-paper-data="{&quot;fillRule&quot;:&quot;evenodd&quot;,&quot;fillRuleOriginal&quot;:&quot;evenodd&quot;,&quot;isIcon&quot;:true,&quot;iconStyle&quot;:&quot;standalone&quot;,&quot;selectedEffects&quot;:{&quot;container&quot;:&quot;&quot;,&quot;transformation&quot;:&quot;&quot;,&quot;pattern&quot;:&quot;&quot;},&quot;bounds&quot;:{&quot;x&quot;:207.31678329761684,&quot;y&quot;:115.00000000000001,&quot;width&quot;:135.36643340476638,&quot;height&quot;:119.44738243649907},&quot;iconType&quot;:&quot;initial&quot;,&quot;initialText&quot;:&quot;R&quot;,&quot;rawInitialId&quot;:351,&quot;disableIconEffects&quot;:&quot;true&quot;,&quot;monogramSpecial&quot;:&quot;multisegment-rectangle&quot;,&quot;suitableAsStandaloneIcon&quot;:true}" fill-rule="evenodd"><g data-paper-data="{&quot;isPathIcon&quot;:true}"><path d="M223.02283,234.44738c0.262,-12.07204 0.513,-24.09708 0.751,-36.07412c0.26467,-13.29538 0.57367,-26.64975 0.927,-40.06313c0.118,-6.76502 0.235,-13.47204 0.353,-20.11906c0.118,-6.64802 0.353,-13.35504 0.706,-20.12006c3.18101,-1.182 6.32702,-2.20501 9.43803,-3.07101h-21.11307c-3.73801,0 -6.76802,3.03001 -6.76802,6.76802v105.91134c0,3.73801 3.03001,6.76802 6.76802,6.76802z" fill="#00b398"></path><path d="M327.06417,154.78013c0,4.58901 -0.397,8.75103 -1.191,12.48704c-0.794,3.73601 -2.04501,7.16202 -3.75101,10.28003c-1.70601,3.11801 -3.91201,6.00102 -6.61802,8.64803c-2.70601,2.64801 -5.97102,5.17702 -9.79503,7.58902l21.00207,37.41612l-16.60605,3.24701h25.81008c3.73801,0 6.76802,-3.03001 6.76802,-6.76802v-105.91134c0,-3.73801 -3.03001,-6.76802 -6.76802,-6.76802h-36.45312c4.25501,1.71301 8.13203,3.91301 11.63004,6.60102c4.82402,3.70601 8.69203,8.32403 11.60404,13.85404c2.91201,5.53002 4.36801,11.97204 4.36801,19.32506z" fill="#ffb500"></path><path d="M287.53104,157.60414c0,-2.47101 -0.339,-4.73602 -1.015,-6.79502c-0.677,-2.05901 -1.67701,-3.83801 -3.00001,-5.33802c-1.324,-1.501 -2.97101,-2.67701 -4.94202,-3.53001c-1.97101,-0.853 -4.28001,-1.28 -6.92702,-1.28c-1.177,0 -2.32401,0.074 -3.44201,0.221c-1.118,0.147 -2.20601,0.368 -3.26501,0.662l-1.412,32.82711h2.11801c2.53001,0 5.10402,-0.324 7.72202,-0.971c2.61734,-0.64734 4.97035,-1.64734 7.05902,-3.00001c2.08801,-1.353 3.79501,-3.08901 5.11802,-5.20702c1.324,-2.11801 1.98601,-4.64701 1.98601,-7.58902z" fill="#62b5e5"></path><path d="M285.36803,234.44738l-11.95604,-33.07411l-10.94304,0.353l-1.416,32.7211z" fill="#84329b"></path></g></g></g></g></svg>